<?xml version="1.0" encoding="utf-8"?>
<!-- Generator: Adobe Illustrator 21.1.0, SVG Export Plug-In . SVG Version: 6.00 Build 0)  -->
<svg version="1.1" id="Layer_1" xmlns="http://www.w3.org/2000/svg" xmlns:xlink="http://www.w3.org/1999/xlink" x="0px" y="0px"
	 viewBox="0 0 45 45" style="enable-background:new 0 0 45 45;" xml:space="preserve">
<style type="text/css">
	.st0{fill:none;stroke:#000000;stroke-width:2;stroke-linecap:round;stroke-linejoin:round;stroke-miterlimit:10;}
	.st1{fill-rule:evenodd;clip-rule:evenodd;fill:none;stroke:#000000;stroke-width:2;stroke-linejoin:round;stroke-miterlimit:10;}
	
		.st2{fill-rule:evenodd;clip-rule:evenodd;fill:none;stroke:#000000;stroke-width:2;stroke-linecap:round;stroke-linejoin:round;stroke-miterlimit:10;}
</style>
<g>
	<path class="st0" d="M37.2,8.3h-3.9c-0.7,0-1.3,0.6-1.3,1.3v3.9c0,0.7,0.6,1.3,1.3,1.3h3.9c0.7,0,1.3-0.6,1.3-1.3V9.6
		C38.5,8.9,37.9,8.3,37.2,8.3z"/>
</g>
<line class="st1" x1="29" y1="18" x2="43" y2="18"/>
<line class="st1" x1="4" y1="18" x2="17" y2="18"/>
<path class="st0" d="M43,34c0,4.4-3.6,8-8,8H11c-4.4,0-8-3.6-8-8V11c0-4.4,3.6-8,8-8h24c4.4,0,8,3.6,8,8V34z"/>
<circle class="st2" cx="23" cy="27" r="6"/>
<circle class="st2" cx="23" cy="27" r="11"/>
</svg>
