<?xml version="1.0" encoding="utf-8"?>
<!-- Generator: Adobe Illustrator 21.1.0, SVG Export Plug-In . SVG Version: 6.00 Build 0)  -->
<svg version="1.1" id="Layer_1" xmlns="http://www.w3.org/2000/svg" xmlns:xlink="http://www.w3.org/1999/xlink" x="0px" y="0px"
	 viewBox="0 0 419.9 163" style="enable-background:new 0 0 419.9 163;" xml:space="preserve">
<style type="text/css">
	.st0{fill:#F4D65C;}
	.st1{fill:#A3C49C;}
	.st2{fill:#582711;}
	.st3{fill:none;stroke:#A3C49C;stroke-width:1.598;stroke-miterlimit:10;}
	.st4{fill:none;stroke:#F4D65C;stroke-width:1.598;stroke-miterlimit:10;}
</style>
<g>
	<path class="st0" d="M161.4,57.1h-11.3V24.5c0-1.8-0.2-3.6-0.6-5.3c-0.4-1.7-1-3.3-2-4.6c-0.9-1.3-2.2-2.4-3.9-3.2
		c-1.6-0.8-3.6-1.2-6.1-1.2c-2.4,0-4.5,0.4-6.1,1.2c-1.6,0.8-2.9,1.9-3.9,3.2c-1,1.3-1.6,2.9-2,4.6c-0.4,1.7-0.6,3.5-0.6,5.3v32.7
		h-11.3v-32c0-3.9,0.5-7.4,1.5-10.5c1-3.1,2.6-5.7,4.6-7.9s4.5-3.8,7.5-5c2.9-1.2,6.4-1.7,10.3-1.7c3.8,0,7.2,0.6,10.2,1.7
		c3,1.2,5.5,2.8,7.5,5c2,2.2,3.5,4.8,4.5,7.9c1,3.1,1.5,6.6,1.5,10.5V57.1z"/>
	<path class="st0" d="M206.8,40c0,2.6-0.4,5-1.3,7.2c-0.9,2.2-2.1,4.1-3.8,5.7c-1.6,1.6-3.6,2.8-6,3.7c-2.4,0.9-5,1.3-7.9,1.3
		s-5.5-0.4-7.9-1.3c-2.3-0.9-4.3-2.1-6-3.7c-1.6-1.6-2.9-3.5-3.8-5.7c-0.9-2.2-1.3-4.6-1.3-7.2c0-2.6,0.4-5,1.3-7.2
		c0.9-2.2,2.1-4.1,3.8-5.6s3.6-2.8,6-3.6c2.3-0.9,4.9-1.3,7.9-1.3s5.6,0.4,7.9,1.3c2.4,0.9,4.3,2.1,6,3.6c1.6,1.6,2.9,3.4,3.8,5.6
		C206.3,35.1,206.8,37.4,206.8,40 M196.2,40.1c0-2.8-0.8-5-2.3-6.7s-3.6-2.6-6.2-2.6c-2.6,0-4.6,0.9-6.1,2.6c-1.5,1.7-2.2,4-2.2,6.7
		c0,2.8,0.7,5,2.2,6.7c1.5,1.7,3.5,2.6,6.1,2.6c2.6,0,4.6-0.9,6.2-2.6C195.5,45.1,196.2,42.9,196.2,40.1"/>
	<path class="st0" d="M237.3,23.1h10.3v18.2c0,5.8-1.5,10-4.6,12.7c-3.1,2.7-7.2,4-12.4,4c-5.2,0-9.4-1.3-12.4-4
		c-3.1-2.7-4.6-6.9-4.6-12.7V23.1h10.3v18.6c0,5.1,2.2,7.6,6.7,7.6c4.5,0,6.7-2.5,6.7-7.6V23.1z"/>
	<path class="st0" d="M272.8,22.3c0.5,0,1,0,1.5,0.1c0.5,0.1,1.1,0.1,1.5,0.2v9.2c-0.5-0.1-1-0.2-1.5-0.2c-0.5,0-1,0-1.6,0
		c-2,0-3.6,0.7-4.9,2c-1.3,1.3-1.9,3.3-1.9,5.9v17.8h-10.2v-18c0-5.8,1.5-10.1,4.5-12.8C263.2,23.6,267.4,22.3,272.8,22.3"/>
	<path class="st0" d="M288,18.7c-1.7,0-3.2-0.5-4.3-1.6c-1.1-1.1-1.7-2.5-1.7-4.3c0-1.7,0.6-3.1,1.7-4.2c1.1-1.1,2.6-1.7,4.3-1.7
		c1.7,0,3.1,0.6,4.2,1.7c1.1,1.1,1.7,2.5,1.7,4.2c0,1.8-0.6,3.3-1.7,4.3C291.1,18.2,289.7,18.7,288,18.7 M292.8,45.7
		c0,1.1,0.1,1.9,0.4,2.6c0.2,0.6,0.9,0.9,1.9,0.9c0.6,0,1.2-0.1,1.9-0.4v7.5c-0.8,0.3-1.6,0.5-2.6,0.6c-1,0.1-2.1,0.2-3.2,0.2
		c-1.4,0-2.6-0.1-3.7-0.4c-1.1-0.2-1.9-0.7-2.7-1.4c-0.7-0.7-1.3-1.6-1.7-2.8c-0.4-1.2-0.6-2.8-0.6-4.7V23.1h10.2V45.7z"/>
	<path class="st0" d="M330,46.5c0,2.5-0.5,4.6-1.5,6.1c-1,1.5-2.2,2.7-3.8,3.4c-1.5,0.8-3.2,1.3-5.1,1.5c-1.8,0.2-3.6,0.4-5.3,0.4
		c-2.1,0-4.3-0.1-6.8-0.3c-2.5-0.2-4.8-0.6-6.9-1.3v-7.9c2.1,0.7,4.1,1.2,6.1,1.5c1.9,0.3,4,0.4,6.2,0.4c2.4,0,4.2-0.2,5.3-0.7
		c1.1-0.5,1.7-1.3,1.7-2.6c0-0.8-0.2-1.4-0.7-1.9c-0.5-0.4-1.1-0.8-1.9-1c-0.8-0.2-1.8-0.4-2.8-0.5c-1.1-0.1-2.2-0.2-3.3-0.4
		c-1.4-0.2-2.6-0.5-3.9-0.9c-1.2-0.4-2.3-1-3.2-1.7c-0.9-0.7-1.7-1.7-2.3-2.9c-0.6-1.2-0.9-2.7-0.9-4.5c0-2.4,0.5-4.3,1.4-5.7
		c0.9-1.4,2.1-2.5,3.6-3.3c1.5-0.8,3.2-1.2,5.1-1.5c1.9-0.2,3.7-0.3,5.6-0.3c1.2,0,2.9,0.1,5.1,0.2c2.1,0.1,4.4,0.4,6.8,0.9V31
		c-1.4-0.4-2.9-0.7-4.6-0.9s-3.6-0.3-5.6-0.3c-2.1,0-3.8,0.2-5.2,0.6c-1.4,0.4-2,1.1-2,2.2c0,0.6,0.2,1.1,0.7,1.4
		c0.5,0.3,1.1,0.6,1.8,0.8c0.8,0.2,1.6,0.4,2.6,0.6c1,0.2,2.1,0.4,3.2,0.6c1.1,0.2,2.3,0.5,3.6,0.9c1.2,0.4,2.4,0.9,3.4,1.7
		c1,0.8,1.9,1.8,2.6,3C329.6,42.8,330,44.5,330,46.5"/>
	<path class="st0" d="M347.6,26.5h0.3c0.8-1.2,2-2.2,3.7-3c1.7-0.8,3.8-1.2,6.3-1.2c2,0,3.8,0.3,5.4,0.9c1.6,0.6,3,1.5,4.1,2.7
		c1.1,1.2,2,2.8,2.6,4.7c0.6,1.9,0.9,4.2,0.9,6.8v19.9h-10.2V39c0-2.6-0.6-4.6-1.7-5.9c-1.1-1.3-2.8-1.9-4.9-1.9
		c-2.2,0-3.8,0.6-4.9,1.9c-1.1,1.3-1.7,3.1-1.8,5.5v18.6h-10.2V0.4h10.2V26.5z"/>
	<path class="st1" d="M184.7,101.8v37.3h-10.2V87.2c0-2.8,0.2-5.2,0.6-7.4c0.4-2.2,1.2-4,2.3-5.5c1.1-1.5,2.6-2.6,4.4-3.4
		c1.9-0.8,4.2-1.2,7.1-1.2c0.9,0,2,0.1,3.2,0.2c1.2,0.1,2.3,0.3,3.2,0.6v8.8c-0.6-0.3-1.3-0.4-2-0.5c-0.7-0.1-1.3-0.1-1.9-0.1
		c-2.2,0-3.9,0.6-5,1.8c-1.1,1.2-1.7,3.3-1.7,6.2v6.2h8.4v9H184.7z"/>
	<path class="st1" d="M199.3,70.1h10.3v45.3c0,1.1,0.1,1.9,0.3,2.6c0.2,0.6,0.8,0.9,1.9,0.9c0.6,0,1.3-0.1,2-0.4v7.5
		c-0.8,0.3-1.6,0.5-2.7,0.6c-1,0.1-2.1,0.2-3.2,0.2c-1.4,0-2.6-0.1-3.7-0.4c-1.1-0.2-1.9-0.7-2.7-1.4c-0.7-0.7-1.3-1.6-1.7-2.8
		c-0.4-1.2-0.6-2.8-0.6-4.7V70.1z"/>
	<path class="st1" d="M255.6,109.8c0,2.6-0.4,5-1.3,7.2c-0.9,2.2-2.1,4.1-3.8,5.7c-1.6,1.6-3.6,2.8-6,3.7c-2.4,0.9-5,1.3-7.9,1.3
		s-5.5-0.4-7.9-1.3c-2.3-0.9-4.3-2.1-6-3.7c-1.6-1.6-2.9-3.5-3.8-5.7c-0.9-2.2-1.3-4.6-1.3-7.2c0-2.6,0.4-5,1.3-7.2
		c0.9-2.2,2.1-4.1,3.8-5.6c1.6-1.6,3.6-2.8,6-3.6c2.3-0.9,4.9-1.3,7.9-1.3s5.6,0.4,7.9,1.3c2.4,0.9,4.3,2.1,6,3.6
		c1.6,1.6,2.9,3.4,3.8,5.6C255.1,104.8,255.6,107.2,255.6,109.8 M245,109.9c0-2.8-0.8-5-2.3-6.7c-1.5-1.7-3.6-2.6-6.2-2.6
		s-4.6,0.9-6.1,2.6c-1.5,1.7-2.2,4-2.2,6.7c0,2.8,0.7,5,2.2,6.7c1.5,1.7,3.5,2.6,6.1,2.6s4.6-0.9,6.2-2.6
		C244.3,114.9,245,112.6,245,109.9"/>
	<path class="st1" d="M286.1,92.8h10.3V111c0,5.8-1.5,10-4.6,12.7c-3.1,2.7-7.2,4-12.4,4c-5.2,0-9.4-1.3-12.4-4
		c-3.1-2.7-4.6-6.9-4.6-12.7V92.8h10.3v18.6c0,5.1,2.2,7.6,6.7,7.6c4.5,0,6.7-2.5,6.7-7.6V92.8z"/>
	<path class="st1" d="M321.6,92c0.5,0,1,0,1.5,0.1c0.5,0.1,1.1,0.1,1.5,0.2v9.2c-0.5-0.1-1-0.2-1.5-0.2c-0.5,0-1,0-1.6,0
		c-2,0-3.6,0.7-4.9,2c-1.3,1.3-1.9,3.3-1.9,5.9v17.8h-10.2v-18c0-5.8,1.5-10.1,4.5-12.8C312,93.4,316.2,92,321.6,92"/>
	<path class="st1" d="M336.8,88.5c-1.7,0-3.2-0.5-4.3-1.6c-1.1-1.1-1.7-2.5-1.7-4.3c0-1.7,0.6-3.1,1.7-4.2c1.1-1.1,2.6-1.7,4.3-1.7
		c1.7,0,3.1,0.6,4.2,1.7c1.1,1.1,1.7,2.5,1.7,4.2c0,1.8-0.6,3.3-1.7,4.3C339.9,87.9,338.5,88.5,336.8,88.5 M341.6,115.4
		c0,1.1,0.1,1.9,0.4,2.6c0.2,0.6,0.9,0.9,1.9,0.9c0.6,0,1.2-0.1,1.9-0.4v7.5c-0.8,0.3-1.6,0.5-2.6,0.6c-1,0.1-2.1,0.2-3.2,0.2
		c-1.4,0-2.6-0.1-3.7-0.4c-1.1-0.2-1.9-0.7-2.7-1.4c-0.7-0.7-1.3-1.6-1.7-2.8c-0.4-1.2-0.6-2.8-0.6-4.7V92.8h10.2V115.4z"/>
	<path class="st1" d="M378.8,116.3c0,2.5-0.5,4.6-1.5,6.1c-1,1.5-2.2,2.7-3.8,3.4c-1.5,0.8-3.2,1.3-5.1,1.5
		c-1.8,0.2-3.6,0.4-5.3,0.4c-2.1,0-4.3-0.1-6.8-0.3c-2.5-0.2-4.8-0.6-6.9-1.3v-7.9c2.1,0.7,4.1,1.2,6.1,1.5c1.9,0.3,4,0.4,6.2,0.4
		c2.4,0,4.2-0.2,5.3-0.7c1.1-0.5,1.7-1.3,1.7-2.6c0-0.8-0.2-1.4-0.7-1.9c-0.5-0.4-1.1-0.8-1.9-1c-0.8-0.2-1.8-0.4-2.8-0.5
		c-1.1-0.1-2.2-0.2-3.3-0.4c-1.4-0.2-2.6-0.5-3.9-0.9c-1.2-0.4-2.3-1-3.2-1.7c-0.9-0.7-1.7-1.7-2.3-2.9c-0.6-1.2-0.9-2.7-0.9-4.5
		c0-2.4,0.5-4.3,1.4-5.7c0.9-1.4,2.1-2.5,3.6-3.3c1.5-0.8,3.2-1.2,5.1-1.5c1.9-0.2,3.7-0.3,5.6-0.3c1.2,0,2.9,0.1,5.1,0.2
		c2.1,0.1,4.4,0.4,6.8,0.9v7.6c-1.4-0.4-2.9-0.7-4.6-0.9c-1.7-0.2-3.6-0.3-5.6-0.3c-2.1,0-3.8,0.2-5.2,0.6c-1.4,0.4-2,1.1-2,2.2
		c0,0.6,0.2,1.1,0.7,1.4c0.5,0.3,1.1,0.6,1.8,0.8c0.8,0.2,1.6,0.4,2.6,0.6c1,0.2,2.1,0.4,3.2,0.6c1.1,0.2,2.3,0.5,3.6,0.9
		c1.2,0.4,2.4,0.9,3.4,1.7c1,0.8,1.9,1.8,2.6,3C378.4,112.5,378.8,114.2,378.8,116.3"/>
	<path class="st1" d="M396.4,96.2h0.3c0.8-1.2,2-2.2,3.7-3c1.7-0.8,3.8-1.2,6.3-1.2c2,0,3.8,0.3,5.4,0.9c1.6,0.6,3,1.5,4.1,2.7
		c1.1,1.2,2,2.8,2.6,4.7c0.6,1.9,0.9,4.2,0.9,6.8v19.9h-10.2v-18.2c0-2.6-0.6-4.6-1.7-5.9c-1.1-1.3-2.8-1.9-4.9-1.9
		c-2.2,0-3.8,0.6-4.9,1.9c-1.1,1.3-1.7,3.1-1.8,5.5v18.6h-10.2V70.1h10.2V96.2z"/>
	<path class="st2" d="M213.4,142.2h3.4V153c0,1.2-0.1,2.2-0.4,3.1c-0.3,0.8-0.6,1.5-1.1,2s-1.1,0.9-1.8,1.1
		c-0.7,0.2-1.5,0.3-2.3,0.3c-1,0-2-0.2-2.8-0.6c-0.8-0.4-1.5-1-2-1.9c-0.5,0.9-1.2,1.5-2,1.9s-1.7,0.6-2.8,0.6
		c-0.8,0-1.6-0.1-2.3-0.3c-0.7-0.2-1.3-0.6-1.7-1.1c-0.5-0.5-0.9-1.2-1.1-2c-0.3-0.8-0.4-1.9-0.4-3.2v-10.8h3.4v10.9
		c0,1.1,0.2,2,0.6,2.5c0.4,0.5,1,0.8,1.9,0.8c0.8,0,1.5-0.3,2-0.8c0.5-0.6,0.8-1.4,0.8-2.5v-10.8h3.4v10.9c0,1.1,0.2,1.9,0.7,2.5
		c0.5,0.6,1.1,0.8,1.9,0.8c0.8,0,1.5-0.3,2-0.8c0.5-0.5,0.7-1.4,0.7-2.6V142.2z"/>
	<path class="st2" d="M233.6,150.1L233.6,150.1c0.3-0.4,0.7-0.7,1.2-0.9c0.5-0.2,1.2-0.4,1.9-0.4c0.6,0,1.1,0.1,1.6,0.3
		c0.5,0.2,0.9,0.4,1.2,0.8c0.3,0.4,0.6,0.8,0.8,1.4c0.2,0.6,0.3,1.3,0.3,2.1v6h-3.1v-5.5c0-0.8-0.2-1.4-0.5-1.8
		c-0.3-0.4-0.8-0.6-1.5-0.6c-0.7,0-1.1,0.2-1.5,0.6c-0.3,0.4-0.5,0.9-0.5,1.7v5.6h-3.1v-17.1h3.1V150.1z"/>
	<path class="st2" d="M265.1,154.1c0,0.8-0.1,1.5-0.4,2.2c-0.3,0.7-0.6,1.2-1.1,1.7c-0.5,0.5-1.1,0.8-1.8,1.1
		c-0.7,0.3-1.5,0.4-2.4,0.4c-0.9,0-1.7-0.1-2.4-0.4c-0.7-0.3-1.3-0.6-1.8-1.1c-0.5-0.5-0.9-1-1.1-1.7c-0.3-0.7-0.4-1.4-0.4-2.2
		c0-0.8,0.1-1.5,0.4-2.2c0.3-0.7,0.6-1.2,1.1-1.7c0.5-0.5,1.1-0.8,1.8-1.1c0.7-0.3,1.5-0.4,2.4-0.4c0.9,0,1.7,0.1,2.4,0.4
		c0.7,0.3,1.3,0.6,1.8,1.1c0.5,0.5,0.9,1,1.1,1.7C264.9,152.6,265.1,153.4,265.1,154.1 M261.9,154.2c0-0.8-0.2-1.5-0.7-2
		c-0.5-0.5-1.1-0.8-1.9-0.8c-0.8,0-1.4,0.3-1.8,0.8c-0.4,0.5-0.7,1.2-0.7,2c0,0.8,0.2,1.5,0.7,2c0.4,0.5,1.1,0.8,1.8,0.8
		c0.8,0,1.4-0.3,1.9-0.8C261.7,155.7,261.9,155,261.9,154.2"/>
	<path class="st2" d="M278.2,142.2h3.1v13.7c0,0.3,0,0.6,0.1,0.8c0.1,0.2,0.3,0.3,0.6,0.3c0.2,0,0.4,0,0.6-0.1v2.3
		c-0.2,0.1-0.5,0.1-0.8,0.2c-0.3,0-0.6,0.1-1,0.1c-0.4,0-0.8,0-1.1-0.1c-0.3-0.1-0.6-0.2-0.8-0.4c-0.2-0.2-0.4-0.5-0.5-0.9
		c-0.1-0.4-0.2-0.8-0.2-1.4V142.2z"/>
	<path class="st2" d="M301.1,155.5c-0.6,0-1.1,0-1.6-0.1c-0.5-0.1-1-0.2-1.5-0.4c0.2,0.8,0.6,1.3,1.2,1.6c0.6,0.3,1.3,0.5,2.2,0.5
		c0.4,0,0.8,0,1.2-0.1c0.6-0.1,1.1-0.2,1.5-0.3c0.4-0.1,0.8-0.3,1.1-0.4v2.4c-0.5,0.2-1.1,0.4-1.8,0.6c-0.7,0.2-1.5,0.2-2.4,0.2
		c-1,0-1.9-0.1-2.7-0.4c-0.8-0.3-1.4-0.6-1.9-1.1c-0.5-0.5-0.9-1-1.1-1.7c-0.2-0.7-0.4-1.4-0.4-2.2c0-0.8,0.1-1.5,0.3-2.2
		c0.2-0.7,0.6-1.2,1-1.7c0.5-0.5,1-0.9,1.7-1.1c0.7-0.3,1.5-0.4,2.4-0.4c0.6,0,1.3,0.1,1.8,0.2c0.6,0.1,1.1,0.4,1.6,0.7
		c0.5,0.3,0.8,0.7,1.1,1.2c0.3,0.5,0.4,1.1,0.4,1.7c0,0.6-0.1,1-0.3,1.4c-0.2,0.4-0.5,0.7-0.9,0.9c-0.4,0.2-0.8,0.4-1.4,0.5
		C302.2,155.5,301.7,155.5,301.1,155.5 M300.5,151c-0.8,0-1.3,0.2-1.7,0.6c-0.4,0.4-0.7,0.9-0.8,1.6c0.7,0.4,1.4,0.5,2.3,0.5
		c0.7,0,1.2-0.1,1.6-0.3c0.4-0.2,0.6-0.6,0.6-1c0-0.4-0.2-0.8-0.5-1C301.5,151.1,301,151,300.5,151"/>
	<path class="st2" d="M321.8,151.8V163h-3.1v-15.7c0-0.8,0.1-1.6,0.2-2.2c0.1-0.7,0.4-1.2,0.7-1.7c0.3-0.4,0.8-0.8,1.3-1
		c0.6-0.2,1.3-0.4,2.1-0.4c0.3,0,0.6,0,1,0c0.4,0,0.7,0.1,1,0.2v2.7c-0.2-0.1-0.4-0.1-0.6-0.2c-0.2,0-0.4,0-0.6,0
		c-0.7,0-1.2,0.2-1.5,0.5c-0.3,0.4-0.5,1-0.5,1.9v1.9h2.5v2.7H321.8z"/>
	<path class="st2" d="M348.1,154.1c0,0.8-0.1,1.5-0.4,2.2c-0.3,0.7-0.6,1.2-1.1,1.7c-0.5,0.5-1.1,0.8-1.8,1.1
		c-0.7,0.3-1.5,0.4-2.4,0.4c-0.9,0-1.7-0.1-2.4-0.4c-0.7-0.3-1.3-0.6-1.8-1.1c-0.5-0.5-0.9-1-1.1-1.7c-0.3-0.7-0.4-1.4-0.4-2.2
		c0-0.8,0.1-1.5,0.4-2.2c0.3-0.7,0.6-1.2,1.1-1.7c0.5-0.5,1.1-0.8,1.8-1.1s1.5-0.4,2.4-0.4c0.9,0,1.7,0.1,2.4,0.4
		c0.7,0.3,1.3,0.6,1.8,1.1c0.5,0.5,0.9,1,1.1,1.7C348,152.6,348.1,153.4,348.1,154.1 M344.9,154.2c0-0.8-0.2-1.5-0.7-2
		c-0.5-0.5-1.1-0.8-1.9-0.8c-0.8,0-1.4,0.3-1.8,0.8c-0.4,0.5-0.7,1.2-0.7,2c0,0.8,0.2,1.5,0.7,2c0.4,0.5,1.1,0.8,1.8,0.8
		c0.8,0,1.4-0.3,1.9-0.8C344.7,155.7,344.9,155,344.9,154.2"/>
	<path class="st2" d="M372.3,154.1c0,0.8-0.1,1.5-0.4,2.2c-0.3,0.7-0.6,1.2-1.1,1.7c-0.5,0.5-1.1,0.8-1.8,1.1
		c-0.7,0.3-1.5,0.4-2.4,0.4c-0.9,0-1.7-0.1-2.4-0.4c-0.7-0.3-1.3-0.6-1.8-1.1c-0.5-0.5-0.9-1-1.1-1.7c-0.3-0.7-0.4-1.4-0.4-2.2
		c0-0.8,0.1-1.5,0.4-2.2c0.3-0.7,0.6-1.2,1.1-1.7c0.5-0.5,1.1-0.8,1.8-1.1s1.5-0.4,2.4-0.4c0.9,0,1.7,0.1,2.4,0.4
		c0.7,0.3,1.3,0.6,1.8,1.1c0.5,0.5,0.9,1,1.1,1.7C372.2,152.6,372.3,153.4,372.3,154.1 M369.1,154.2c0-0.8-0.2-1.5-0.7-2
		c-0.5-0.5-1.1-0.8-1.9-0.8c-0.8,0-1.4,0.3-1.8,0.8c-0.4,0.5-0.7,1.2-0.7,2c0,0.8,0.2,1.5,0.7,2c0.4,0.5,1.1,0.8,1.8,0.8
		c0.8,0,1.4-0.3,1.9-0.8C368.9,155.7,369.1,155,369.1,154.2"/>
	<path class="st2" d="M396.5,154.1c0,0.8-0.1,1.5-0.4,2.2c-0.3,0.7-0.6,1.2-1.1,1.7c-0.5,0.5-1.1,0.9-1.8,1.2
		c-0.7,0.3-1.5,0.4-2.4,0.4c-0.8,0-1.6-0.1-2.3-0.4c-0.7-0.2-1.3-0.6-1.8-1.1c-0.5-0.5-0.9-1-1.1-1.7c-0.3-0.7-0.4-1.4-0.4-2.3
		c0-0.8,0.1-1.5,0.4-2.2c0.2-0.7,0.6-1.2,1-1.7c0.4-0.5,1-0.9,1.7-1.1c0.7-0.3,1.4-0.4,2.2-0.4c0.7,0,1.3,0.1,1.8,0.3
		c0.5,0.2,0.9,0.5,1.2,0.8v-8.2h3.1V154.1z M393.3,154.2c0-0.8-0.2-1.5-0.7-2c-0.4-0.5-1.1-0.8-1.9-0.8c-0.8,0-1.4,0.3-1.9,0.8
		c-0.4,0.5-0.7,1.2-0.7,2c0,0.8,0.2,1.5,0.7,2c0.4,0.5,1.1,0.8,1.9,0.8c0.8,0,1.4-0.3,1.9-0.8C393.1,155.7,393.3,155,393.3,154.2"/>
	<path class="st2" d="M418.1,156.1c0,0.8-0.1,1.4-0.4,1.8c-0.3,0.5-0.7,0.8-1.1,1c-0.5,0.2-1,0.4-1.5,0.5c-0.6,0.1-1.1,0.1-1.6,0.1
		c-0.6,0-1.3,0-2-0.1c-0.7-0.1-1.4-0.2-2.1-0.4v-2.4c0.6,0.2,1.2,0.4,1.8,0.4c0.6,0.1,1.2,0.1,1.9,0.1c0.7,0,1.3-0.1,1.6-0.2
		c0.3-0.1,0.5-0.4,0.5-0.8c0-0.2-0.1-0.4-0.2-0.6c-0.1-0.1-0.3-0.2-0.6-0.3c-0.2-0.1-0.5-0.1-0.9-0.2c-0.3,0-0.7-0.1-1-0.1
		c-0.4-0.1-0.8-0.2-1.2-0.3c-0.4-0.1-0.7-0.3-1-0.5c-0.3-0.2-0.5-0.5-0.7-0.9c-0.2-0.4-0.3-0.8-0.3-1.4c0-0.7,0.1-1.3,0.4-1.7
		c0.3-0.4,0.6-0.8,1.1-1c0.5-0.2,1-0.4,1.5-0.4c0.6-0.1,1.1-0.1,1.7-0.1c0.4,0,0.9,0,1.5,0.1c0.6,0,1.3,0.1,2.1,0.3v2.3
		c-0.4-0.1-0.9-0.2-1.4-0.3c-0.5-0.1-1.1-0.1-1.7-0.1c-0.6,0-1.2,0.1-1.6,0.2c-0.4,0.1-0.6,0.3-0.6,0.7c0,0.2,0.1,0.3,0.2,0.4
		c0.1,0.1,0.3,0.2,0.6,0.2c0.2,0.1,0.5,0.1,0.8,0.2c0.3,0,0.6,0.1,1,0.2c0.3,0.1,0.7,0.2,1.1,0.3c0.4,0.1,0.7,0.3,1,0.5
		c0.3,0.2,0.6,0.5,0.8,0.9C418,155,418.1,155.5,418.1,156.1"/>
	<path class="st2" d="M115,111.8c0-6.1,3.9-13.6,15.4-17.1c-4.6-4.6-7.7-9.4-7.7-13.9c0-5.4,3.6-12.9,16.2-12.9c9.3,0,14,5.8,14,12
		c0,8.1-6.4,13.2-15,15.8l15.8,17.1c1.9-3.2,3.6-7.5,4.8-11.3l4.1,0.6c-1.3,4.9-3.3,9.3-6,13.8l10.3,10.9h-6.6l-7.2-7.5
		c-4.6,5.3-11.2,8.7-19.7,8.7C121.9,128,115,120.5,115,111.8 M150.5,116.5l-17.7-19.2c-8.5,2.4-12.5,8.4-12.5,14
		c0,7.4,5.8,12.7,13.9,12.7C140.7,124,146.8,121.4,150.5,116.5 M148.5,80c0-5.8-5.1-8.3-9.6-8.3c-7,0-10.7,3.9-10.7,8.9
		c0,3.9,2.8,7.4,5.4,10.2c0.7,0.8,1.5,1.6,2.1,2.5C143.6,90.8,148.5,87.2,148.5,80"/>
	<path class="st3" d="M41.4,62.4C11.5,74.9-0.8,42.6,1,39.7C2.8,36.8,38.2,33,41.4,62.4z"/>
	<path class="st4" d="M41.4,26.6C13.3,38.3,1.8,8.1,3.5,5.4C5.1,2.7,38.3-0.9,41.4,26.6z"/>
	<path class="st4" d="M41.5,98.7C13.4,110.5,1.9,80.2,3.6,77.5C5.2,74.8,38.4,71.2,41.5,98.7z"/>
	<path class="st3" d="M41.3,135c-28.1,11.7-39.6-18.5-37.9-21.2C5.1,111,38.3,107.5,41.3,135z"/>
	<path class="st1" d="M43.2,62.4c30.4,12.5,42.9-19.8,41.1-22.7C82.4,36.8,46.5,33,43.2,62.4"/>
	<path class="st0" d="M43.2,26.6C71.7,38.3,83.4,8.1,81.7,5.4C80,2.7,46.3-0.9,43.2,26.6"/>
	<path class="st0" d="M43.2,98.7c28.5,11.7,40.2-18.5,38.5-21.2C80,74.8,46.3,71.2,43.2,98.7"/>
	<path class="st1" d="M43.3,136.1c28.5,11.7,40.2-18.5,38.5-21.2S46.5,108.5,43.3,136.1"/>
	<rect x="41.3" y="26.1" class="st2" width="2.8" height="126.3"/>
</g>
</svg>
