<?xml version="1.0" encoding="utf-8"?>
<!-- Generator: Adobe Illustrator 21.1.0, SVG Export Plug-In . SVG Version: 6.00 Build 0)  -->
<svg version="1.1" id="Layer_1" xmlns="http://www.w3.org/2000/svg" xmlns:xlink="http://www.w3.org/1999/xlink" x="0px" y="0px"
	 viewBox="0 0 84.4 149.7" style="enable-background:new 0 0 84.4 149.7;" xml:space="preserve">
<style type="text/css">
	.st0{fill:none;stroke:#A3C49C;stroke-width:1.598;stroke-miterlimit:10;}
	.st1{fill:none;stroke:#F4D65C;stroke-width:1.598;stroke-miterlimit:10;}
	.st2{fill:#A3C49C;}
	.st3{fill:#F4D65C;}
	.st4{fill:#582711;}
</style>
<path class="st0" d="M41.4,59.6C11.5,72.1-0.8,39.9,1,37C2.8,34.1,38.2,30.2,41.4,59.6z"/>
<path class="st1" d="M41.4,23.9C13.3,35.6,1.8,5.3,3.5,2.6C5.1-0.1,38.3-3.7,41.4,23.9z"/>
<path class="st1" d="M41.5,96C13.4,107.7,1.9,77.5,3.6,74.7C5.2,72,38.4,68.4,41.5,96z"/>
<path class="st0" d="M41.3,132.2C13.2,144,1.7,113.7,3.4,111C5.1,108.3,38.3,104.7,41.3,132.2z"/>
<path class="st2" d="M43.2,59.6C73.6,72.1,86.1,39.9,84.3,37C82.4,34.1,46.5,30.2,43.2,59.6"/>
<path class="st3" d="M43.2,23.9C71.7,35.6,83.4,5.3,81.7,2.6C80-0.1,46.3-3.7,43.2,23.9"/>
<path class="st3" d="M43.2,96c28.5,11.7,40.2-18.5,38.5-21.2C80,72,46.3,68.4,43.2,96"/>
<path class="st2" d="M43.3,133.3c28.5,11.7,40.2-18.5,38.5-21.2S46.5,105.8,43.3,133.3"/>
<rect x="41.3" y="23.3" class="st4" width="2.8" height="126.3"/>
</svg>
